<?xml version="1.0" encoding="UTF-8" standalone="no"?>
<svg
   xmlns:dc="http://purl.org/dc/elements/1.1/"
   xmlns:cc="http://creativecommons.org/ns#"
   xmlns:rdf="http://www.w3.org/1999/02/22-rdf-syntax-ns#"
   xmlns:svg="http://www.w3.org/2000/svg"
   xmlns="http://www.w3.org/2000/svg"
   viewBox="0 0 372.36356 336.62509"
   height="336.62509"
   width="372.36356"
   id="svg2"
   version="1.1">
  <metadata
     id="metadata8">
    <rdf:RDF>
      <cc:Work
         rdf:about="">
        <dc:format>image/svg+xml</dc:format>
        <dc:type
           rdf:resource="http://purl.org/dc/dcmitype/StillImage" />
        <dc:title></dc:title>
      </cc:Work>
    </rdf:RDF>
  </metadata>
  <defs
     id="defs6" />
  <g
     transform="translate(1057.3685,-1.052372)"
     id="g1042">
    <g
       id="g931"
       transform="translate(-565.43074,-58.920571)"
       style="fill:#f6f6f4;fill-opacity:1">
      <path
         id="path915"
         d="m -444.53757,395.13302 v -8.71507 h -15.66225 v -14.23918 h 49.18225 v 14.23918 h -16.29489 v 8.71507 z"
         style="opacity:1;fill:#f6f6f4;fill-opacity:1;stroke:#969792;stroke-width:2.93000007;stroke-miterlimit:4;stroke-dasharray:none;stroke-dashoffset:0;stroke-opacity:1" />
      <path
         id="path917"
         d="m -358.85583,395.13302 v -8.71507 h -15.66225 v -14.23918 h 49.18225 v 14.23918 h -16.29489 v 8.71507 z"
         style="opacity:1;fill:#f6f6f4;fill-opacity:1;stroke:#969792;stroke-width:2.93000007;stroke-miterlimit:4;stroke-dasharray:none;stroke-dashoffset:0;stroke-opacity:1" />
      <path
         id="path919"
         d="m -273.17404,395.13302 v -8.71507 h -15.66225 v -14.23918 h 49.18225 v 14.23918 h -16.29489 v 8.71507 z"
         style="opacity:1;fill:#f6f6f4;fill-opacity:1;stroke:#969792;stroke-width:2.93000007;stroke-miterlimit:4;stroke-dasharray:none;stroke-dashoffset:0;stroke-opacity:1" />
      <path
         id="path921"
         d="m -187.49227,395.13302 v -8.71507 h -15.66225 v -14.23918 h 49.18225 v 14.23918 h -16.29489 v 8.71507 z"
         style="opacity:1;fill:#f6f6f4;fill-opacity:1;stroke:#969792;stroke-width:2.93000007;stroke-miterlimit:4;stroke-dasharray:none;stroke-dashoffset:0;stroke-opacity:1" />
    </g>
    <g
       id="g937"
       transform="translate(-563.70792,-58.576007)"
       style="fill:#f6f6f4;fill-opacity:1">
      <path
         id="path909"
         d="m -444.36529,61.093379 v 8.715068 h -15.66225 v 14.239182 h 49.18225 V 69.808447 h -16.29489 v -8.715068 z"
         style="opacity:1;fill:#f6f6f4;fill-opacity:1;stroke:#969792;stroke-width:2.93000007;stroke-miterlimit:4;stroke-dasharray:none;stroke-dashoffset:0;stroke-opacity:1" />
      <path
         id="path911"
         d="m -358.64232,61.093379 v 8.715068 h -15.66225 v 14.239182 h 49.18225 V 69.808447 h -16.29489 v -8.715068 z"
         style="opacity:1;fill:#f6f6f4;fill-opacity:1;stroke:#969792;stroke-width:2.93000007;stroke-miterlimit:4;stroke-dasharray:none;stroke-dashoffset:0;stroke-opacity:1" />
      <path
         style="opacity:1;fill:#f6f6f4;fill-opacity:1;stroke:#969792;stroke-width:2.93000007;stroke-miterlimit:4;stroke-dasharray:none;stroke-dashoffset:0;stroke-opacity:1"
         d="m -187.1964,61.093379 v 8.715068 h -15.66225 v 14.239182 h 49.18225 V 69.808447 h -16.29489 v -8.715068 z"
         id="path923" />
      <path
         style="opacity:1;fill:#f6f6f4;fill-opacity:1;stroke:#969792;stroke-width:2.93000007;stroke-miterlimit:4;stroke-dasharray:none;stroke-dashoffset:0;stroke-opacity:1"
         d="m -272.91936,61.093379 v 8.715068 h -15.66225 v 14.239182 h 49.18225 V 69.808447 h -16.29489 v -8.715068 z"
         id="path925" />
    </g>
    <rect
       style="opacity:1;fill:#989994;fill-opacity:1;stroke:#969792;stroke-width:1.04999995;stroke-miterlimit:4;stroke-dasharray:none;stroke-dashoffset:0;stroke-opacity:1"
       id="rect896"
       width="371.31357"
       height="289.93643"
       x="-1056.8435"
       y="24.262976"
       ry="32.349682" />
    <rect
       style="opacity:1;fill:#3e3a47;fill-opacity:1;stroke:#969792;stroke-width:1.04999995;stroke-miterlimit:4;stroke-dasharray:none;stroke-dashoffset:0;stroke-opacity:1"
       id="rect894"
       width="343.05084"
       height="257.77542"
       x="-1041.2502"
       y="41.318058"
       ry="19.1929" />
    <g
       aria-label="fwupd"
       style="font-style:normal;font-variant:normal;font-weight:normal;font-stretch:normal;font-size:65.98323822px;line-height:1.25;font-family:Hack;-inkscape-font-specification:Hack;letter-spacing:0px;word-spacing:0px;fill:#dcddd8;fill-opacity:1;stroke:#989994;stroke-width:1.04999995;stroke-miterlimit:4;stroke-dasharray:none;stroke-opacity:1"
       id="fwdup">
      <title
         id="title999">fwdup</title>
      <path
         d="m -985.55658,158.45603 h -8.90773 v 30.88015 h -5.80649 v -30.88015 h -6.2025 v -2.70532 l 6.2025,-1.97949 v -2.04548 q 0,-6.86226 3.03519,-9.83151 3.03523,-3.03523 8.44585,-3.03523 2.11147,0 3.82703,0.3959 1.78155,0.32992 3.03523,0.7918 l -1.51761,4.55285 q -1.05574,-0.32992 -2.44138,-0.65984 -1.38565,-0.32991 -2.83728,-0.32991 -2.90327,0 -4.3549,1.97949 -1.38564,1.91352 -1.38564,6.07046 v 2.30942 h 8.90773 z"
         style="font-style:normal;font-variant:normal;font-weight:normal;font-stretch:normal;font-family:sans-serif;-inkscape-font-specification:sans-serif;fill:#dcddd8;fill-opacity:1;stroke:#989994;stroke-width:1.04999995;stroke-miterlimit:4;stroke-dasharray:none;stroke-opacity:1"
         id="path988" />
      <path
         d="m -950.25555,189.2702 -6.07046,-19.92694 q -0.85778,-2.70531 -1.51762,-5.27866 -0.59385,-2.63933 -0.92376,-4.09096 h -0.26393 q -0.26394,1.45163 -0.85779,4.09096 -0.59385,2.57335 -1.51761,5.34464 l -6.33439,19.86096 h -6.59833 l -9.69953,-35.36702 h 6.00447 l 4.88276,18.87121 q 0.72582,2.83728 1.38565,5.74054 0.65983,2.90326 0.92377,4.81678 h 0.26393 q 0.26393,-1.12172 0.59385,-2.7713 0.3959,-1.64958 0.85778,-3.43113 0.46188,-1.84753 0.92377,-3.29916 l 6.2684,-19.92694 h 6.33439 l 6.07046,19.92694 q 0.72582,2.24343 1.38565,4.88276 0.72582,2.63933 0.98975,4.55284 h 0.26393 q 0.19795,-1.64958 0.85778,-4.55284 0.72582,-2.90326 1.51762,-5.93849 l 4.94874,-18.87121 h 5.93849 l -9.8315,35.36702 z"
         style="font-style:normal;font-variant:normal;font-weight:normal;font-stretch:normal;font-family:sans-serif;-inkscape-font-specification:sans-serif;fill:#dcddd8;fill-opacity:1;stroke:#989994;stroke-width:1.04999995;stroke-miterlimit:4;stroke-dasharray:none;stroke-opacity:1"
         id="path990" />
      <path
         d="m -897.73294,153.96917 v 35.36701 h -4.7508 l -0.85778,-4.68481 h -0.26393 q -1.71556,2.7713 -4.75079,4.09096 -3.03523,1.25368 -6.46636,1.25368 -6.40037,0 -9.63355,-3.03522 -3.23318,-3.10122 -3.23318,-9.83151 v -23.16011 h 5.87251 v 22.76421 q 0,8.44586 7.852,8.44586 5.87251,0 8.11594,-3.29916 2.30941,-3.29917 2.30941,-9.50159 v -18.40932 z"
         style="font-style:normal;font-variant:normal;font-weight:normal;font-stretch:normal;font-family:sans-serif;-inkscape-font-specification:sans-serif;fill:#dcddd8;fill-opacity:1;stroke:#989994;stroke-width:1.04999995;stroke-miterlimit:4;stroke-dasharray:none;stroke-opacity:1"
         id="path992" />
      <path
         d="m -869.69019,153.30933 q 6.53234,0 10.49134,4.55285 4.02497,4.55284 4.02497,13.72451 0,9.0397 -4.02497,13.72451 -3.959,4.68481 -10.55732,4.68481 -4.09096,0 -6.79627,-1.51761 -2.63933,-1.5836 -4.15695,-3.62908 h -0.3959 q 0.13197,1.12172 0.26393,2.83728 0.13197,1.71556 0.13197,2.96925 v 14.51631 h -5.80652 v -51.20299 h 4.75079 l 0.7918,4.81677 h 0.26393 q 1.5836,-2.30941 4.15695,-3.89301 2.57334,-1.5836 6.86225,-1.5836 z m -1.05573,4.88276 q -5.41063,0 -7.65406,3.03523 -2.17744,3.03523 -2.30941,9.23766 v 1.12171 q 0,6.53234 2.11147,10.09544 2.17744,3.49711 7.98397,3.49711 3.23318,0 5.27866,-1.78155 2.11146,-1.78155 3.10121,-4.81678 1.05573,-3.10121 1.05573,-7.0602 0,-6.07046 -2.3754,-9.69954 -2.30941,-3.62908 -7.19217,-3.62908 z"
         style="font-style:normal;font-variant:normal;font-weight:normal;font-stretch:normal;font-family:sans-serif;-inkscape-font-specification:sans-serif;fill:#dcddd8;fill-opacity:1;stroke:#989994;stroke-width:1.04999995;stroke-miterlimit:4;stroke-dasharray:none;stroke-opacity:1"
         id="path994" />
      <path
         d="m -833.39942,189.99601 q -6.59833,0 -10.55732,-4.55284 -3.959,-4.61883 -3.959,-13.72451 0,-9.10569 3.959,-13.72452 4.02497,-4.68481 10.6233,-4.68481 4.09096,0 6.66431,1.51762 2.63933,1.51761 4.28891,3.69506 h 0.3959 q -0.066,-0.85778 -0.26394,-2.50736 -0.13196,-1.71557 -0.13196,-2.70532 v -14.12041 h 5.80652 v 50.14726 h -4.68481 l -0.85778,-4.75079 h -0.26393 q -1.5836,2.24343 -4.22293,3.82703 -2.63933,1.58359 -6.79627,1.58359 z m 0.92376,-4.81677 q 5.60858,0 7.85201,-3.03523 2.30941,-3.10121 2.30941,-9.30364 v -1.05573 q 0,-6.59832 -2.17745,-10.09544 -2.17744,-3.56309 -8.04995,-3.56309 -4.68481,0 -7.06021,3.76104 -2.30941,3.69507 -2.30941,9.96347 0,6.33439 2.30941,9.83151 2.3754,3.49711 7.12619,3.49711 z"
         style="font-style:normal;font-variant:normal;font-weight:normal;font-stretch:normal;font-family:sans-serif;-inkscape-font-specification:sans-serif;fill:#dcddd8;fill-opacity:1;stroke:#989994;stroke-width:1.04999995;stroke-miterlimit:4;stroke-dasharray:none;stroke-opacity:1"
         id="path996" />
    </g>
    <g
       aria-label="firmware
"
       style="font-style:normal;font-variant:normal;font-weight:normal;font-stretch:normal;font-size:26.33895683px;line-height:1.25;font-family:Hack;-inkscape-font-specification:Hack;letter-spacing:0px;word-spacing:0px;fill:#dedfda;fill-opacity:1;stroke:#969792;stroke-width:0.65847391;stroke-opacity:1"
       id="firmware">
      <title
         id="title1001">firmware</title>
      <path
         d="m -998.71048,207.75291 h -3.55572 v 12.32663 h -2.3179 v -12.32663 h -2.4758 v -1.07989 l 2.4758,-0.79017 v -0.81651 q 0,-2.73925 1.2116,-3.92451 1.2116,-1.21159 3.3714,-1.21159 0.84285,0 1.52767,0.15804 0.71115,0.13169 1.21159,0.31606 l -0.6058,1.81739 q -0.42142,-0.13169 -0.97454,-0.26339 -0.55312,-0.13169 -1.13257,-0.13169 -1.15895,0 -1.73835,0.79017 -0.5531,0.76383 -0.5531,2.42318 v 0.92186 h 3.55572 z m 3.74013,-7.08518 q 0.52678,0 0.92186,0.36875 0.42143,0.3424 0.42143,1.10623 0,0.7375 -0.42143,1.10624 -0.39508,0.36875 -0.92186,0.36875 -0.57946,0 -0.97454,-0.36875 -0.39509,-0.36874 -0.39509,-1.10624 0,-0.76383 0.39509,-1.10623 0.39508,-0.36875 0.97454,-0.36875 z m 1.13257,5.29413 v 14.11768 h -2.31782 v -14.11768 z"
         style="font-style:normal;font-variant:normal;font-weight:normal;font-stretch:normal;line-height:76.59999728%;font-family:sans-serif;-inkscape-font-specification:sans-serif;fill:#dedfda;fill-opacity:1;stroke:#969792;stroke-width:0.65847391;stroke-opacity:1"
         id="path973" />
      <path
         d="m -982.77543,205.69847 q 0.39508,0 0.84284,0.0527 0.4741,0.0263 0.81651,0.10536 l -0.28973,2.13345 q -0.3424,-0.079 -0.76383,-0.13169 -0.39508,-0.0527 -0.76383,-0.0527 -1.07989,0 -2.0281,0.6058 -0.9482,0.57945 -1.52766,1.65935 -0.55311,1.05356 -0.55311,2.47586 v 7.53294 h -2.31783 v -14.11768 h 1.8964 l 0.26339,2.58122 h 0.10536 q 0.68481,-1.15891 1.76471,-2.00176 1.0799,-0.84285 2.55488,-0.84285 z"
         style="font-style:normal;font-variant:normal;font-weight:normal;font-stretch:normal;line-height:76.59999728%;font-family:sans-serif;-inkscape-font-specification:sans-serif;fill:#dedfda;fill-opacity:1;stroke:#969792;stroke-width:0.65847391;stroke-opacity:1"
         id="path975" />
      <path
         d="m -962.99492,205.69847 q 2.39684,0 3.58209,1.23793 1.18526,1.2116 1.18526,3.95085 v 9.19229 h -2.29149 v -9.08694 q 0,-3.34504 -2.87095,-3.34504 -2.05444,0 -2.94996,1.18525 -0.86919,1.18525 -0.86919,3.4504 v 7.79633 h -2.29149 v -9.08694 q 0,-3.34504 -2.89728,-3.34504 -2.13346,0 -2.94997,1.31694 -0.8165,1.31695 -0.8165,3.79281 v 7.32223 h -2.31783 v -14.11768 h 1.87006 l 0.34241,1.92275 h 0.1317 q 0.65847,-1.10624 1.76471,-1.63302 1.13257,-0.55312 2.39684,-0.55312 3.31871,0 4.31959,2.37051 h 0.13169 q 0.71116,-1.21159 1.92275,-1.79105 1.23793,-0.57946 2.60756,-0.57946 z"
         style="font-style:normal;font-variant:normal;font-weight:normal;font-stretch:normal;line-height:76.59999728%;font-family:sans-serif;-inkscape-font-specification:sans-serif;fill:#dedfda;fill-opacity:1;stroke:#969792;stroke-width:0.65847391;stroke-opacity:1"
         id="path977" />
      <path
         d="m -942.31886,220.05321 -2.42318,-7.95437 q -0.34241,-1.0799 -0.6058,-2.10712 -0.23705,-1.05355 -0.36874,-1.63301 h -0.10536 q -0.10535,0.57946 -0.3424,1.63301 -0.23706,1.02722 -0.6058,2.13346 l -2.52854,7.92803 h -2.6339 l -3.87182,-14.11769 h 2.39684 l 1.94908,7.53295 q 0.28973,1.13257 0.55312,2.29149 0.26339,1.15891 0.36875,1.92274 h 0.10535 q 0.10536,-0.44776 0.23705,-1.10624 0.15804,-0.65847 0.34241,-1.36962 0.18437,-0.73749 0.36875,-1.31695 l 2.5022,-7.95437 h 2.52854 l 2.42318,7.95437 q 0.28973,0.89552 0.55312,1.94908 0.28973,1.05356 0.39508,1.81739 h 0.10536 q 0.079,-0.65847 0.34241,-1.81739 0.28972,-1.15891 0.60579,-2.3705 l 1.97542,-7.53295 h 2.37051 l -3.9245,14.11769 z"
         style="font-style:normal;font-variant:normal;font-weight:normal;font-stretch:normal;line-height:76.59999728%;font-family:sans-serif;-inkscape-font-specification:sans-serif;fill:#dedfda;fill-opacity:1;stroke:#969792;stroke-width:0.65847391;stroke-opacity:1"
         id="path979" />
      <path
         d="m -927.80611,205.72481 q 2.58122,0 3.81915,1.13258 1.23793,1.13257 1.23793,3.60843 v 9.61372 h -1.6857 l -0.44776,-2.00176 h -0.10535 q -0.92187,1.15892 -1.94909,1.71204 -1.00088,0.55311 -2.79193,0.55311 -1.92274,0 -3.18701,-1.00088 -1.26427,-1.02722 -1.26427,-3.18701 0,-2.10712 1.65936,-3.23969 1.65935,-1.15892 5.10975,-1.26427 l 2.39685,-0.079 v -0.84285 q 0,-1.76471 -0.76383,-2.44952 -0.76383,-0.68481 -2.1598,-0.68481 -1.10623,0 -2.10711,0.3424 -1.00088,0.31607 -1.87007,0.7375 l -0.71115,-1.73838 q 0.92186,-0.50044 2.18613,-0.84284 1.26427,-0.36875 2.6339,-0.36875 z m 2.76559,7.45393 -2.08078,0.079 q -2.63389,0.10536 -3.66111,0.84285 -1.00088,0.73749 -1.00088,2.08078 0,1.18525 0.71115,1.73837 0.73749,0.55312 1.87006,0.55312 1.79105,0 2.97631,-0.97454 1.18525,-1.00088 1.18525,-3.05532 z"
         style="font-style:normal;font-variant:normal;font-weight:normal;font-stretch:normal;line-height:76.59999728%;font-family:sans-serif;-inkscape-font-specification:sans-serif;fill:#dedfda;fill-opacity:1;stroke:#969792;stroke-width:0.65847391;stroke-opacity:1"
         id="path981" />
      <path
         d="m -911.79205,205.69847 q 0.39508,0 0.84285,0.0527 0.4741,0.0263 0.8165,0.10536 l -0.28972,2.13345 q -0.34241,-0.079 -0.76383,-0.13169 -0.39509,-0.0527 -0.76383,-0.0527 -1.0799,0 -2.0281,0.6058 -0.94821,0.57945 -1.52766,1.65935 -0.55312,1.05356 -0.55312,2.47586 v 7.53294 h -2.31783 v -14.11768 h 1.89641 l 0.26339,2.58122 h 0.10535 q 0.68481,-1.15891 1.76471,-2.00176 1.0799,-0.84285 2.55488,-0.84285 z"
         style="font-style:normal;font-variant:normal;font-weight:normal;font-stretch:normal;line-height:76.59999728%;font-family:sans-serif;-inkscape-font-specification:sans-serif;fill:#dedfda;fill-opacity:1;stroke:#969792;stroke-width:0.65847391;stroke-opacity:1"
         id="path983" />
      <path
         d="m -902.57347,205.69847 q 1.81738,0 3.10799,0.79017 1.31695,0.79017 2.00176,2.23881 0.71115,1.42231 0.71115,3.34505 v 1.39597 h -9.66639 q 0.0527,2.39684 1.21159,3.66111 1.18525,1.23793 3.29237,1.23793 1.34329,0 2.37051,-0.23705 1.05355,-0.26339 2.15979,-0.73749 v 2.0281 q -1.0799,0.4741 -2.13346,0.68481 -1.05355,0.23705 -2.5022,0.23705 -2.00176,0 -3.55576,-0.8165 -1.52766,-0.81651 -2.39684,-2.42319 -0.84285,-1.63301 -0.84285,-3.97718 0,-2.31783 0.76383,-3.97718 0.79017,-1.65936 2.18614,-2.55488 1.4223,-0.89553 3.29237,-0.89553 z m -0.0263,1.89641 q -1.65936,0 -2.6339,1.0799 -0.9482,1.05355 -1.13257,2.94996 h 7.19053 q -0.0263,-1.79105 -0.84285,-2.89729 -0.8165,-1.13257 -2.58121,-1.13257 z"
         style="font-style:normal;font-variant:normal;font-weight:normal;font-stretch:normal;line-height:76.59999728%;font-family:sans-serif;-inkscape-font-specification:sans-serif;fill:#dedfda;fill-opacity:1;stroke:#969792;stroke-width:0.65847391;stroke-opacity:1"
         id="path985" />
    </g>
    <g
       aria-label="
updater"
       style="font-style:normal;font-variant:normal;font-weight:normal;font-stretch:normal;font-size:24.63344765px;line-height:1.25;font-family:Hack;-inkscape-font-specification:Hack;letter-spacing:0px;word-spacing:0px;fill:#dedfda;fill-opacity:1;stroke:#969792;stroke-width:0.6158362;stroke-opacity:1"
       id="updater">
      <title
         id="title1003">updater</title>
      <path
         d="m -992.97236,229.01115 v 13.20353 h -1.77361 l -0.32024,-1.74897 h -0.0985 q -0.64047,1.0346 -1.77361,1.52727 -1.13314,0.46803 -2.41408,0.46803 -2.3895,0 -3.5965,-1.13313 -1.207,-1.15778 -1.207,-3.67039 v -8.64634 h 2.1923 v 8.49854 q 0,3.15308 2.93144,3.15308 2.19238,0 3.02991,-1.23167 0.86217,-1.23167 0.86217,-3.54722 v -6.87273 z"
         style="font-style:normal;font-variant:normal;font-weight:normal;font-stretch:normal;line-height:76.59999728%;font-family:sans-serif;-inkscape-font-specification:sans-serif;fill:#dedfda;fill-opacity:1;stroke:#969792;stroke-width:0.6158362;stroke-opacity:1"
         id="path958" />
      <path
         d="m -982.50319,228.76482 q 2.43871,0 3.91671,1.69971 1.50264,1.6997 1.50264,5.12375 0,3.37479 -1.50264,5.12376 -1.478,1.74897 -3.94135,1.74897 -1.52727,0 -2.53724,-0.56656 -0.98534,-0.59121 -1.55191,-1.35484 h -0.1478 q 0.0493,0.41876 0.0985,1.05923 0.0493,0.64047 0.0493,1.10851 v 5.41936 h -2.16774 v -19.11556 h 1.77361 l 0.2956,1.79824 h 0.0985 q 0.5912,-0.86217 1.55191,-1.45337 0.9607,-0.5912 2.56188,-0.5912 z m -0.39414,1.82287 q -2.01994,0 -2.85748,1.13314 -0.8129,1.13314 -0.86217,3.44868 v 0.41877 q 0,2.43871 0.78827,3.76892 0.8129,1.30557 2.98065,1.30557 1.20704,0 1.97067,-0.6651 0.78827,-0.6651 1.15778,-1.79824 0.39413,-1.15777 0.39413,-2.63578 0,-2.26628 -0.8868,-3.62112 -0.86217,-1.35484 -2.68505,-1.35484 z"
         style="font-style:normal;font-variant:normal;font-weight:normal;font-stretch:normal;line-height:76.59999728%;font-family:sans-serif;-inkscape-font-specification:sans-serif;fill:#dedfda;fill-opacity:1;stroke:#969792;stroke-width:0.6158362;stroke-opacity:1"
         id="path960" />
      <path
         d="m -968.9548,242.46101 q -2.46335,0 -3.94135,-1.6997 -1.47801,-1.72434 -1.47801,-5.12376 0,-3.39942 1.47801,-5.12376 1.50264,-1.74897 3.96598,-1.74897 1.52728,0 2.48798,0.56657 0.98534,0.56657 1.60117,1.37947 h 0.1478 q -0.0246,-0.32023 -0.0985,-0.93607 -0.0493,-0.64047 -0.0493,-1.00997 v -5.27156 h 2.16775 v 18.72142 h -1.74898 l -0.32023,-1.77361 h -0.0985 q -0.5912,0.83754 -1.57654,1.42874 -0.98533,0.5912 -2.53724,0.5912 z m 0.34487,-1.79824 q 2.09384,0 2.93138,-1.13314 0.86217,-1.15777 0.86217,-3.47331 v -0.39414 q 0,-2.46334 -0.81291,-3.76891 -0.8129,-1.33021 -3.00528,-1.33021 -1.74897,0 -2.63578,1.40411 -0.86217,1.37947 -0.86217,3.71965 0,2.36481 0.86217,3.67038 0.88681,1.30557 2.66042,1.30557 z"
         style="font-style:normal;font-variant:normal;font-weight:normal;font-stretch:normal;line-height:76.59999728%;font-family:sans-serif;-inkscape-font-specification:sans-serif;fill:#dedfda;fill-opacity:1;stroke:#969792;stroke-width:0.6158362;stroke-opacity:1"
         id="path962" />
      <path
         d="m -953.485,228.78945 q 2.41407,0 3.57185,1.05924 1.15777,1.05924 1.15777,3.37478 v 8.99121 h -1.57654 l -0.41877,-1.87214 h -0.0985 q -0.86217,1.08387 -1.82287,1.60117 -0.93607,0.5173 -2.61115,0.5173 -1.79824,0 -2.98064,-0.93607 -1.18241,-0.9607 -1.18241,-2.98064 0,-1.97068 1.55191,-3.02992 1.55191,-1.08387 4.77889,-1.1824 l 2.24164,-0.0739 v -0.78827 q 0,-1.65044 -0.71437,-2.29091 -0.71437,-0.64047 -2.01994,-0.64047 -1.03461,0 -1.97068,0.32023 -0.93607,0.2956 -1.74897,0.68974 l -0.66511,-1.62581 q 0.86218,-0.46804 2.04458,-0.78827 1.18241,-0.34487 2.46335,-0.34487 z m 2.58651,6.97127 -1.94604,0.0739 q -2.46335,0.0985 -3.42405,0.78827 -0.93607,0.68973 -0.93607,1.94604 0,1.10851 0.6651,1.62581 0.68973,0.5173 1.74897,0.5173 1.67508,0 2.78358,-0.91144 1.10851,-0.93607 1.10851,-2.85748 z"
         style="font-style:normal;font-variant:normal;font-weight:normal;font-stretch:normal;line-height:76.59999728%;font-family:sans-serif;-inkscape-font-specification:sans-serif;fill:#dedfda;fill-opacity:1;stroke:#969792;stroke-width:0.6158362;stroke-opacity:1"
         id="path964" />
      <path
         d="m -940.25687,240.68741 q 0.49267,0 1.00997,-0.0739 0.51731,-0.0985 0.83754,-0.19707 v 1.65044 q -0.34487,0.17243 -0.98534,0.27097 -0.64047,0.12316 -1.23167,0.12316 -1.0346,0 -1.92141,-0.34486 -0.86217,-0.36951 -1.4041,-1.25631 -0.54194,-0.8868 -0.54194,-2.48798 v -7.68563 h -1.87214 v -1.03461 l 1.89677,-0.86217 0.86217,-2.80821 h 1.28094 v 3.02991 h 3.81819 v 1.67508 h -3.81819 v 7.63637 q 0,1.20703 0.56657,1.79824 0.59121,0.56657 1.50264,0.56657 z"
         style="font-style:normal;font-variant:normal;font-weight:normal;font-stretch:normal;line-height:76.59999728%;font-family:sans-serif;-inkscape-font-specification:sans-serif;fill:#dedfda;fill-opacity:1;stroke:#969792;stroke-width:0.6158362;stroke-opacity:1"
         id="path966" />
      <path
         d="m -930.6745,228.76482 q 1.6997,0 2.90674,0.739 1.23168,0.739 1.87215,2.09384 0.6651,1.33021 0.6651,3.12845 v 1.30558 h -9.04048 q 0.0493,2.24164 1.13314,3.42404 1.10851,1.15778 3.07918,1.15778 1.25631,0 2.21701,-0.2217 0.98534,-0.24634 2.01995,-0.68974 v 1.89677 q -1.00998,0.44341 -1.99531,0.64047 -0.98534,0.2217 -2.34018,0.2217 -1.87214,0 -3.32552,-0.76363 -1.42874,-0.76364 -2.24164,-2.26628 -0.78827,-1.52727 -0.78827,-3.71965 0,-2.16774 0.71437,-3.71965 0.739,-1.55191 2.04458,-2.38944 1.3302,-0.83754 3.07918,-0.83754 z m -0.0246,1.77361 q -1.5519,0 -2.46334,1.00997 -0.88681,0.98534 -1.05924,2.75894 h 6.72493 q -0.0246,-1.67507 -0.78827,-2.70968 -0.76364,-1.05923 -2.41408,-1.05923 z"
         style="font-style:normal;font-variant:normal;font-weight:normal;font-stretch:normal;line-height:76.59999728%;font-family:sans-serif;-inkscape-font-specification:sans-serif;fill:#dedfda;fill-opacity:1;stroke:#969792;stroke-width:0.6158362;stroke-opacity:1"
         id="path968" />
      <path
         d="m -915.72202,228.76482 q 0.3695,0 0.78827,0.0493 0.4434,0.0246 0.76363,0.0985 l -0.27096,1.99531 q -0.32024,-0.0739 -0.71437,-0.12317 -0.36951,-0.0493 -0.71437,-0.0493 -1.00997,0 -1.89678,0.56657 -0.8868,0.54194 -1.42874,1.55191 -0.5173,0.98534 -0.5173,2.31554 v 7.04517 h -2.16774 v -13.20353 h 1.7736 l 0.24634,2.41408 h 0.0985 q 0.64047,-1.08387 1.65044,-1.87214 1.00997,-0.78827 2.38945,-0.78827 z"
         style="font-style:normal;font-variant:normal;font-weight:normal;font-stretch:normal;line-height:76.59999728%;font-family:sans-serif;-inkscape-font-specification:sans-serif;fill:#dedfda;fill-opacity:1;stroke:#969792;stroke-width:0.6158362;stroke-opacity:1"
         id="path970" />
    </g>
  </g>
</svg>
