<svg width="125mm" height="25mm" viewBox="0 0 125 25" xml:space="preserve" xmlns="http://www.w3.org/2000/svg"><defs><filter id="c" x="-.435" y="-.427" width="2.034" height="2.016" color-interpolation-filters="sRGB"><feFlood flood-color="#000" flood-opacity=".251" result="flood"/><feComposite in="flood" in2="SourceGraphic" operator="in" result="composite1"/><feGaussianBlur in="composite1" result="blur" stdDeviation="1.1"/><feOffset dx="1" dy="1" result="offset"/><feComposite in="SourceGraphic" in2="offset" result="composite2"/></filter><filter id="d" x="-.421" y="-.197" width="2.002" height="1.468" color-interpolation-filters="sRGB"><feFlood flood-color="#000" flood-opacity=".251" result="flood"/><feComposite in="flood" in2="SourceGraphic" operator="in" result="composite1"/><feGaussianBlur in="composite1" result="blur" stdDeviation="1.1"/><feOffset dx="1" dy="1" result="offset"/><feComposite in="SourceGraphic" in2="offset" result="composite2"/></filter><filter id="e" x="-.173" y="-.167" width="1.412" height="1.397" color-interpolation-filters="sRGB"><feFlood flood-color="#000" flood-opacity=".251" result="flood"/><feComposite in="flood" in2="SourceGraphic" operator="in" result="composite1"/><feGaussianBlur in="composite1" result="blur" stdDeviation="1.1"/><feOffset dx="1" dy="1" result="offset"/><feComposite in="SourceGraphic" in2="offset" result="composite2"/></filter><linearGradient id="a" x1="-10.232" x2="-7.618" y1="1398.7" y2="1416.3" gradientTransform="matrix(.89515 0 0 .89642 16.517 -1249)" gradientUnits="userSpaceOnUse"><stop stop-color="#a3cfff" offset="0"/><stop stop-color="#54a2f9" offset="1"/></linearGradient><linearGradient id="b" x1="36.553" x2="60.53" y1="845.73" y2="845.73" gradientTransform="matrix(0 -.89642 .89515 0 -729.78 56.573)" gradientUnits="userSpaceOnUse"><stop stop-color="#2e57a7" offset="0"/><stop stop-color="#4268be" offset=".132"/><stop stop-color="#366cca" offset=".898"/><stop stop-color="#2e57a7" offset="1"/></linearGradient></defs><path d="M42.324 18.834h2.503l.69-3.47 1.796-1.944 1.887 5.414h2.594l-2.649-6.977 4.3-4.868h-2.722l-4.444 4.868h-.055l.962-4.868H44.7zm10.702 0h2.485l1.796-9.011H54.84zm3.52-10.356c.87 0 1.541-.617 1.541-1.471 0-.781-.653-1.2-1.342-1.2-.853 0-1.542.673-1.542 1.472 0 .8.671 1.2 1.342 1.2zm1.56 6.856c0 2.344 1.523 3.706 3.519 3.706 1.415 0 2.34-.545 3.012-1.053l-1.035-1.527c-.38.291-.816.582-1.433.582-1.016 0-1.524-.672-1.524-1.762 0-2.017 1.161-3.688 2.595-3.688.508 0 .834.2 1.197.58l1.379-1.47c-.454-.564-1.288-1.109-2.413-1.109-2.957 0-5.297 2.616-5.297 5.741zm7.771 3.5h2.485l.436-2.162 1.47-1.472 1.36 3.634h2.485l-2.14-5.069 3.682-3.942h-2.757l-3.393 3.651h-.072l1.487-7.376h-2.485zm9.117-1.522c.744 1.127 2.123 1.744 3.23 1.744 2.177 0 3.737-1.199 3.737-2.96 0-1.236-.817-1.945-1.887-2.526-.726-.418-1.488-.69-1.488-1.254 0-.472.472-.854 1.162-.854.635 0 1.16.364 1.596.818l1.36-1.29c-.743-.781-1.723-1.38-2.956-1.38-1.923 0-3.484 1.235-3.484 2.943 0 1.126.799 1.925 1.815 2.488 1.015.582 1.56.818 1.56 1.345 0 .49-.58.854-1.27.854-.653 0-1.306-.364-1.941-1.127zm8.358-2.108c0 2.398 1.506 3.851 3.683 3.851 1.397 0 2.503-.436 3.229-.945l-.87-1.562c-.454.309-1.107.636-1.67.636-1.18 0-2.086-.636-2.014-2.144h5.116c.146-.273.472-1.2.472-2.053 0-1.871-.798-3.38-2.94-3.38-2.394 0-5.006 2.254-5.006 5.597zm2.558-1.69c.4-1.326 1.288-1.998 2.14-1.998.908 0 1.216.6 1.216 1.326 0 .254-.036.49-.09.672zm6.45 1.82c0 2.344 1.525 3.706 3.52 3.706 1.415 0 2.34-.545 3.012-1.053l-1.034-1.527c-.381.291-.817.582-1.433.582-1.016 0-1.524-.672-1.524-1.762 0-2.017 1.16-3.688 2.594-3.688.508 0 .834.2 1.197.58l1.38-1.47c-.454-.564-1.289-1.109-2.414-1.109-2.957 0-5.297 2.616-5.297 5.741zm17.107-5.522h-2.486l-1.16 5.941c-.708.8-1.27 1.163-1.797 1.163-.58 0-.907-.309-.907-.927 0-.236.055-.49.145-.854l1.053-5.323h-2.468l-1.125 5.632a6.51 6.51 0 0 0-.145 1.272c0 1.508.635 2.325 2.123 2.325 1.088 0 2.122-.672 2.939-1.435h.072l-.036 1.217h2.014zm.543 9.022h2.485l1.016-5.214c.707-1.272 1.45-1.835 2.25-1.835.29 0 .652.017.888.145l.817-2.143c-.2-.11-.49-.182-.944-.182-1.034 0-2.05.836-2.757 1.962h-.073l.109-1.744h-2.014zm7.054-3.63c0 2.398 1.506 3.851 3.683 3.851 1.397 0 2.504-.436 3.23-.945l-.871-1.562c-.454.309-1.107.636-1.67.636-1.179 0-2.086-.636-2.013-2.144h5.116c.145-.273.471-1.2.471-2.053 0-1.871-.798-3.38-2.939-3.38-2.394 0-5.007 2.254-5.007 5.597zm2.559-1.69c.399-1.326 1.288-1.998 2.14-1.998.907 0 1.216.6 1.216 1.326 0 .254-.036.49-.091.672z" fill="#2e57a7" aria-label="Kicksecure"/><g stroke-linecap="round" stroke-linejoin="round"><path d="M18.535 2.172c-.58.748.024 2.246 0 3.616l-6.277.024A6.606 6.606 0 0 0 6.535 9.12a6.626 6.626 0 0 0 0 6.617 6.607 6.607 0 0 0 5.723 3.31v0h6.277c.077 1.463-.464 2.528 0 3.64l-6.277.432c-6.52 0-8.846-2.46-10.458-5.178C-.03 14.768.022 10.475 1.852 7.3c1.83-3.174 4.877-5.536 10.406-5.536z" fill="url(#a)" stroke="#2e57a7" stroke-width=".896" style="paint-order:fill markers stroke"/><path d="M2.962 10.103c-.317-2.505 1.332-5.206 4.396-5.232-1.892.377-4.07 3.365-4.395 5.232z" fill="#fff" fill-rule="evenodd" stroke="#fff" stroke-width=".447"/><path d="M37.56 4.379v16.338c0 2.059-1.586 3.68-3.555 3.717l-15.976.297c-6.641-1.41-5.97-24.274 0-24.462l15.976.394C35.974.71 37.56 2.32 37.56 4.379z" fill="url(#b)" stroke="#2e57a6" stroke-width=".537" style="paint-order:fill markers stroke"/></g><g fill-rule="evenodd"><path d="m14.312 1409-1.742 3.649 1.444 1.706c.305.383.932.825 1.972.825h2.008c.7 0 .812-.583.442-1z" fill="#a3cfff" filter="url(#c)" transform="matrix(.89515 0 0 .89642 16.676 -1249)"/><path d="m8.283 1398.9-3.21 2.087c-.449.322-.654.458-.85 1.231l-1.165 9.957 6.205-12.647c.311-.723-.618-.97-.98-.628z" fill="#a3cfff" filter="url(#d)" transform="matrix(.89515 0 0 .89642 16.676 -1249)"/><path d="m16.844 1399.5-5.202 6.418-3.031-3.511-5.812 11.796c-.214.766.82 1.023 1.098.642l5.113-6.112 2.967 3.598 5.949-12.158c.338-.693-.55-1.37-1.082-.673z" fill="#fff215" filter="url(#e)" transform="matrix(.89515 0 0 .89642 16.676 -1249)"/></g></svg>