<svg id="Layer_1" data-name="Layer 1" xmlns="http://www.w3.org/2000/svg" viewBox="0 0 422.49 418.18"><defs><style>.cls-1{fill:#1d1d1b;}</style></defs><path class="cls-1" d="M309.07,98.47a93.18,93.18,0,0,0-10-2.25l-1,7.88c-.12,1.06-13.15,105-111.12,196.41a76.7,76.7,0,0,1-10.59-11.88c30.54-26.3,52.95-56.42,66.62-77.56,1.88-2.91,5.47-8.8,8.88-15.47a322.54,322.54,0,0,0,16.78-32.79l1.19-2.82H250.53l-16.62,12.38a4.94,4.94,0,0,1-6.6-.62l-10.65-11.63-.08-12.22,13.61-.13-.13-14.07-13.61.13-.13-13.61-14.06.13.12,13.61-13.61.12.13,14.07,13.61-.12.09,12.62-10.24,11.11a5,5,0,0,1-6.59.62L169.14,160H149.83l1.19,2.82c.54,1.29,10.23,24,29.11,52.83a10.18,10.18,0,0,1-.89,12.36c-8.43,9.44-21.23,22.36-28.23,29.09-11.17-14.32-40.72-57.86-60.71-139.29,82-30.35,186.1-13.13,187.16-13l2.21-12.93C167.37,71.66,73.8,109.18,73.8,109.18l1.37,5.88c.18.73.36,1.42.53,2.15,6.06,24,27.43,97.74,74.43,160l5.08-4.73c1.16-1.09,27-25.18,37.3-39l0,0a20,20,0,0,0,1.1-23.44c-5.36-8.2-18.1-27.05-18.38-27.67l13.16,9.61a5,5,0,0,0,6.65-.68l14.76-16.62,14.77,16.62a5,5,0,0,0,6.65.68l14.07-10.33c-8.6,15.44-24.16,37.83-40.92,58.26l0,0a320.29,320.29,0,0,1-42.18,42.23l-5.06,4.16a281.68,281.68,0,0,0,30.71,32.41l3.74-3.37c91.8-83,114.43-175.35,119.24-202.11a129,129,0,0,1,14,3.77C294,254,200,327.22,199,328l11.65,8.67s83-66.82,120-186.48c3.49-11.49,6.63-23.48,9.27-36.05l1.13-5.38C330.33,104.72,319.65,101.32,309.07,98.47Z"/></svg>